<?xml version="1.0" encoding="utf-8"?>
<!-- Generator: Adobe Illustrator 14.0.0, SVG Export Plug-In . SVG Version: 6.00 Build 43363)  -->
<!DOCTYPE svg PUBLIC "-//W3C//DTD SVG 1.1//EN" "http://www.w3.org/Graphics/SVG/1.1/DTD/svg11.dtd">
<svg version="1.1" id="Layer_1" xmlns="http://www.w3.org/2000/svg" xmlns:xlink="http://www.w3.org/1999/xlink" x="0px" y="0px"
	 width="20px" height="20px" viewBox="0 0 20 20" enable-background="new 0 0 20 20" xml:space="preserve">
<path fill="#373535" d="M7.001,4.138v11.709c2.995,2.549,4.956,4.154,4.956,4.154V-0.013C11.957-0.013,10.087,1.487,7.001,4.138z"/>
<path fill="#373535" d="M0,8.046c0,1.074,0,2.827,0,3.905c0,1.083,0.873,1.957,1.957,1.957h2.922V6.09H1.956
	C0.873,6.09,0,6.964,0,8.046z"/>
<path fill="#373535" d="M16.641,12.795c0,0.372-0.291,0.666-0.666,0.666l0,0c-0.373,0-0.666-0.294-0.666-0.666V7.213
	c0-0.373,0.291-0.674,0.666-0.674l0,0c0.373,0,0.666,0.301,0.666,0.674V12.795z"/>
<path fill="#373535" d="M20,14.971c0,0.372-0.309,0.67-0.669,0.67l0,0c-0.37,0-0.681-0.298-0.681-0.67V5.026
	c0-0.365,0.311-0.667,0.681-0.667l0,0C19.689,4.359,20,4.661,20,5.026V14.971z"/>
</svg>
