<?xml version="1.0" encoding="UTF-8" standalone="no"?>
<svg id="svg2837" xmlns:rdf="http://www.w3.org/1999/02/22-rdf-syntax-ns#" xmlns="http://www.w3.org/2000/svg" xml:space="preserve" viewBox="0 0 100 100" version="1.1" xmlns:cc="http://creativecommons.org/ns#" xmlns:dc="http://purl.org/dc/elements/1.1/"><metadata id="metadata2936"><rdf:RDF><cc:Work rdf:about=""><dc:format>image/svg+xml</dc:format><dc:type rdf:resource="http://purl.org/dc/dcmitype/StillImage"/><dc:title/></cc:Work></rdf:RDF></metadata><g id="g2847" transform="matrix(1.25,0,0,-1.25,0,100)"><g id="g2899" transform="translate(57,72)"><path id="path2901" fill-rule="nonzero" fill="#373535" d="m0,0-33,0c-8.25,0-15-6.75-15-15v-33c0-8.25,6.75-15,15-15h33c8.25,0,15,6.75,15,15v33c0,8.25-6.75,15-15,15m0-8c3.859,0,7-3.14,7-7v-33c0-3.859-3.141-7-7-7h-33c-3.86,0-7,3.141-7,7v33c0,3.86,3.14,7,7,7h33"/></g><g id="g2945" transform="translate(29.75,54)"><path id="path2947" stroke-linejoin="round" style="stroke-dasharray:none;" d="M0,0,0-27" stroke="#373535" stroke-linecap="round" stroke-miterlimit="4" stroke-width="10" fill="none"/></g><g id="g2949" transform="translate(51.25,54)"><path id="path2951" stroke-linejoin="round" style="stroke-dasharray:none;" d="M0,0,0-27" stroke="#373535" stroke-linecap="round" stroke-miterlimit="4" stroke-width="10" fill="none"/></g></g></svg>