<?xml version="1.0" encoding="utf-8"?>
<!-- Generator: Adobe Illustrator 14.0.0, SVG Export Plug-In . SVG Version: 6.00 Build 43363)  -->
<!DOCTYPE svg PUBLIC "-//W3C//DTD SVG 1.1//EN" "http://www.w3.org/Graphics/SVG/1.1/DTD/svg11.dtd">
<svg version="1.1"
	 id="button" xmlns:rdf="http://www.w3.org/1999/02/22-rdf-syntax-ns#" xmlns:cc="http://creativecommons.org/ns#" xmlns:dc="http://purl.org/dc/elements/1.1/"
	 xmlns="http://www.w3.org/2000/svg" xmlns:xlink="http://www.w3.org/1999/xlink" x="0px" y="0px" width="80px" height="80px"
	 viewBox="0 0 80 80" enable-background="new 0 0 80 80" xml:space="preserve">
<path id="buttonBorder" fill="#373535" d="M60.952,0H19.048C8.571,0,0,8.571,0,19.048v41.904C0,71.43,8.571,80,19.048,80h41.904
	C71.43,80,80,71.43,80,60.952V19.048C80,8.571,71.43,0,60.952,0 M60.952,10.159c4.901,0,8.889,3.987,8.889,8.889v41.904
	c0,4.901-3.987,8.889-8.889,8.889H19.048c-4.902,0-8.889-3.987-8.889-8.889V19.048c0-4.902,3.987-8.889,8.889-8.889H60.952"/>
<path id="wipIconFill" fill="#373535" d="M32.948,21.796C32.475,19.708,32.819,18,33.711,18h12.578c0.895,0,1.235,1.708,0.764,3.796
	L40.86,49.12c-0.473,2.087-1.247,2.087-1.721,0L32.948,21.796z"/>
<path id="wipIconBorder" fill="none" stroke="#373535" stroke-width="4" d="M32.948,21.796C32.475,19.708,32.819,18,33.711,18
	h12.578c0.895,0,1.235,1.708,0.764,3.796L40.86,49.12c-0.473,2.087-1.247,2.087-1.721,0L32.948,21.796z"/>
<circle id="wipIconPoint" fill="#373535" cx="40" cy="59.158" r="4.842"/>
</svg>
