<?xml version="1.0" encoding="UTF-8" standalone="no"?>
<!-- Created with Inkscape (http://www.inkscape.org/) -->

<svg
   xmlns:svg="http://www.w3.org/2000/svg"
   xmlns="http://www.w3.org/2000/svg"
   xmlns:xlink="http://www.w3.org/1999/xlink"
   version="1.1"
   width="100"
   height="100"
   id="svg2837"
   xml:space="preserve"><defs
     id="defs2841"><clipPath
       id="clipPath2853"><path
         d="M 0,80 80,80 80,0 0,0 0,80 z"
         id="path2855" /></clipPath><clipPath
       id="clipPath2861"><path
         d="m 6,75 69.1201,0 0,-69.12012 L 6,5.87988 6,75 z"
         id="path2863" /></clipPath><clipPath
       id="clipPath2865"><path
         d="m 6,75 69.12,0 0,-69.12 L 6,5.88 6,75 z"
         id="path2867" /></clipPath><mask
       id="mask2869"><g
         id="g2871"><g
           clip-path="url(#clipPath2865)"
           id="g2873"><g
             id="g2875"><g
               transform="matrix(69.12001,0,0,69.12001,6,5.8800049)"
               id="g2877"><image
                 xlink:href="pause_img0.png"
                 id="image2879"
                 transform="matrix(1,0,0,-1,0,1)"
                 height="1"
                 width="1" /></g></g></g></g></mask><mask
       id="mask2881"><image
         xlink:href="pause_img1.png"
         id="image2883"
         height="1"
         width="1" /></mask><clipPath
       id="clipPath2907"><path
         d="m 21.75,62 37.6797,0 0,-43.2002 -37.6797,0 0,43.2002 z"
         id="path2909" /></clipPath><clipPath
       id="clipPath2911"><path
         d="m 21.75,62 37.68,0 0,-43.2 -37.68,0 0,43.2 z"
         id="path2913" /></clipPath><mask
       id="mask2915"><g
         id="g2917"><g
           clip-path="url(#clipPath2911)"
           id="g2919"><g
             id="g2921"><g
               transform="matrix(37.680008,0,0,43.199997,21.75,18.800003)"
               id="g2923"><image
                 xlink:href="pause_img3.png"
                 id="image2925"
                 transform="matrix(1,0,0,-1,0,1)"
                 height="1"
                 width="1" /></g></g></g></g></mask><mask
       id="mask2927"><image
         xlink:href="pause_img4.png"
         id="image2929"
         height="1"
         width="1" /></mask></defs><g
     transform="matrix(1.25,0,0,-1.25,0,100)"
     id="g2847"><g
       transform="translate(57,72)"
       id="g2899"><path
         d="m 0,0 -33,0 c -8.25,0 -15,-6.75 -15,-15 l 0,-33 c 0,-8.25 6.75,-15 15,-15 l 33,0 c 8.25,0 15,6.75 15,15 l 0,33 C 15,-6.75 8.25,0 0,0 m 0,-8 c 3.859,0 7,-3.14 7,-7 l 0,-33 c 0,-3.859 -3.141,-7 -7,-7 l -33,0 c -3.86,0 -7,3.141 -7,7 l 0,33 c 0,3.86 3.14,7 7,7 l 33,0"
         id="path2901"
         style="fill:#373535;fill-opacity:1;fill-rule:nonzero;stroke:none" /></g><g
       transform="translate(29.75,54)"
       id="g2945"><path
         d="M 0,0 0,-27"
         id="path2947"
         style="fill:none;stroke:#373535;stroke-width:10;stroke-linecap:round;stroke-linejoin:round;stroke-miterlimit:4;stroke-opacity:1;stroke-dasharray:none" /></g><g
       transform="translate(51.25,54)"
       id="g2949"><path
         d="M 0,0 0,-27"
         id="path2951"
         style="fill:none;stroke:#373535;stroke-width:10;stroke-linecap:round;stroke-linejoin:round;stroke-miterlimit:4;stroke-opacity:1;stroke-dasharray:none" /></g></g></svg>