<?xml version="1.0" encoding="UTF-8" standalone="no"?>
<!-- Created with Inkscape (http://www.inkscape.org/) -->

<svg
   xmlns:svg="http://www.w3.org/2000/svg"
   xmlns="http://www.w3.org/2000/svg"
   xmlns:xlink="http://www.w3.org/1999/xlink"
   version="1.1"
   width="100"
   height="100"
   id="svg3105"
   xml:space="preserve"><defs
     id="defs3109"><clipPath
       id="clipPath3121"><path
         d="M 0,80 80,80 80,0 0,0 0,80 z"
         id="path3123" /></clipPath><clipPath
       id="clipPath3129"><path
         d="m 6,75 69.1201,0 0,-69.12012 L 6,5.87988 6,75 z"
         id="path3131" /></clipPath><clipPath
       id="clipPath3133"><path
         d="m 6,75 69.12,0 0,-69.12 L 6,5.88 6,75 z"
         id="path3135" /></clipPath><mask
       id="mask3137"><g
         id="g3139"><g
           clip-path="url(#clipPath3133)"
           id="g3141"><g
             id="g3143"><g
               transform="matrix(69.12001,0,0,69.12001,6,5.8800049)"
               id="g3145"><image
                 xlink:href="play_img6.png"
                 id="image3147"
                 transform="matrix(1,0,0,-1,0,1)"
                 height="1"
                 width="1" /></g></g></g></g></mask><mask
       id="mask3149"><image
         xlink:href="play_img7.png"
         id="image3151"
         height="1"
         width="1" /></mask><clipPath
       id="clipPath3175"><path
         d="m 22.3994,63.4038 39.3604,0 0,-45.8403 -39.3604,0 0,45.8403 z"
         id="path3177" /></clipPath><clipPath
       id="clipPath3179"><path
         d="m 22.3994,63.4038 39.36,0 0,-45.84 -39.36,0 0,45.84 z"
         id="path3181" /></clipPath><mask
       id="mask3183"><g
         id="g3185"><g
           clip-path="url(#clipPath3179)"
           id="g3187"><g
             id="g3189"><g
               transform="matrix(39.360001,0,0,45.839996,22.399414,17.563812)"
               id="g3191"><image
                 xlink:href="play_img9.png"
                 id="image3193"
                 transform="matrix(1,0,0,-1,0,1)"
                 height="1"
                 width="1" /></g></g></g></g></mask><mask
       id="mask3195"><image
         xlink:href="play_img10.png"
         id="image3197"
         height="1"
         width="1" /></mask></defs><g
     transform="matrix(1.25,0,0,-1.25,0,100)"
     id="g3115"><g
       transform="translate(57,72)"
       id="g3167"><path
         d="m 0,0 -33,0 c -8.25,0 -15,-6.75 -15,-15 l 0,-33 c 0,-8.25 6.75,-15 15,-15 l 33,0 c 8.25,0 15,6.75 15,15 l 0,33 C 15,-6.75 8.25,0 0,0 m 0,-8 c 3.859,0 7,-3.14 7,-7 l 0,-33 c 0,-3.859 -3.141,-7 -7,-7 l -33,0 c -3.86,0 -7,3.141 -7,7 l 0,33 c 0,3.86 3.14,7 7,7 l 33,0"
         id="path3169"
         style="fill:#373535;fill-opacity:1;fill-rule:nonzero;stroke:none" /></g><g
       transform="translate(30.7915,23.1201)"
       id="g3213"><path
         d="m 0,0 c -1.866,-1.166 -3.392,-0.32 -3.392,1.88 l 0,31 c 0,2.2 1.526,3.046 3.392,1.88 L 24.415,19.5 c 1.865,-1.166 1.865,-3.074 0,-4.24 L 0,0 z"
         id="path3215"
         style="fill:#373535;fill-opacity:1;fill-rule:nonzero;stroke:none" /></g><g
       transform="translate(30.7915,23.1201)"
       id="g3217"><path
         d="m 0,0 c -1.866,-1.166 -3.392,-0.32 -3.392,1.88 l 0,31 c 0,2.2 1.526,3.046 3.392,1.88 L 24.415,19.5 c 1.865,-1.166 1.865,-3.074 0,-4.24 L 0,0 z"
         id="path3219"
         style="fill:none;stroke:#373535;stroke-width:4;stroke-linecap:butt;stroke-linejoin:miter;stroke-miterlimit:4;stroke-opacity:1;stroke-dasharray:none" /></g></g></svg>